<?xml version="1.0" encoding="UTF-8"?>
<svg id="Layer_1" xmlns="http://www.w3.org/2000/svg" version="1.1" viewBox="0 0 988.31 847.31">
  <!-- Generator: Adobe Illustrator 30.5.1, SVG Export Plug-In . SVG Version: 2.1.4 Build 3)  -->
  <defs>
    <style>
      .st0, .st1, .st2, .st3, .st4, .st5, .st6, .st7, .st8 {
        fill: none;
        stroke-miterlimit: 8;
        stroke-width: 10.31px;
      }

      .st0, .st5 {
        stroke: #7030a0;
      }

      .st1, .st7 {
        stroke: red;
      }

      .st2 {
        stroke: #000;
      }

      .st3, .st4 {
        stroke: #0070c0;
      }

      .st3, .st5, .st6, .st7 {
        stroke-dasharray: 41.25 30.94;
      }

      .st6, .st8 {
        stroke: #ffc000;
      }
    </style>
  </defs>
  <path class="st3" d="M82.16,493.74l171.12-182.58"/>
  <path class="st6" d="M96.16,525.16l364.81,195.24"/>
  <path class="st5" d="M318.16,246.66l150.78-163.5"/>
  <path class="st5" d="M675.41,246.66l-142.25-163.5"/>
  <path class="st3" d="M739.16,311.16l165.81,182.9"/>
  <path class="st7" d="M746.39,796.31l-208.23-43.15"/>
  <path class="st6" d="M892.29,526.16l-367.13,194.93"/>
  <path class="st7" d="M824.16,764.08l81.27-205.92"/>
  <path class="st3" d="M331.16,279.16h330.7"/>
  <path class="st2" d="M892.16,525.66c0-25.13,20.37-45.5,45.5-45.5s45.5,20.37,45.5,45.5-20.37,45.5-45.5,45.5-45.5-20.37-45.5-45.5Z"/>
  <path class="st4" d="M240.16,278.66c0-25.13,20.37-45.5,45.5-45.5s45.5,20.37,45.5,45.5-20.37,45.5-45.5,45.5-45.5-20.37-45.5-45.5Z"/>
  <path class="st4" d="M662.16,278.66c0-25.13,20.37-45.5,45.5-45.5s45.5,20.37,45.5,45.5-20.37,45.5-45.5,45.5-45.5-20.37-45.5-45.5Z"/>
  <path class="st8" d="M447.16,752.66c0-25.13,20.37-45.5,45.5-45.5s45.5,20.37,45.5,45.5-20.37,45.5-45.5,45.5-45.5-20.37-45.5-45.5Z"/>
  <path class="st0" d="M455.16,50.66c0-25.13,20.37-45.5,45.5-45.5s45.5,20.37,45.5,45.5-20.37,45.5-45.5,45.5-45.5-20.37-45.5-45.5Z"/>
  <path class="st1" d="M746.16,796.66c0-25.13,20.37-45.5,45.5-45.5s45.5,20.37,45.5,45.5-20.37,45.5-45.5,45.5-45.5-20.37-45.5-45.5Z"/>
  <path class="st2" d="M96.16,525.16h347.07"/>
  <path class="st7" d="M158.48,764.4l-76.32-206.24"/>
  <path class="st7" d="M236.16,796.31l210.86-43.15"/>
  <path class="st1" d="M145.16,796.66c0-25.13,20.37-45.5,45.5-45.5s45.5,20.37,45.5,45.5-20.37,45.5-45.5,45.5-45.5-20.37-45.5-45.5Z"/>
  <path class="st2" d="M5.16,525.66c0-25.13,20.37-45.5,45.5-45.5s45.5,20.37,45.5,45.5-20.37,45.5-45.5,45.5-45.5-20.37-45.5-45.5Z"/>
  <path class="st2" d="M443.16,525.66c0-25.13,20.37-45.5,45.5-45.5s45.5,20.37,45.5,45.5-20.37,45.5-45.5,45.5-45.5-20.37-45.5-45.5Z"/>
  <path class="st2" d="M892.39,525.47l-358.23-.32"/>
</svg>