<svg width="2503" height="1003" xmlns="http://www.w3.org/2000/svg" xmlns:xlink="http://www.w3.org/1999/xlink" xml:space="preserve" overflow="hidden"><g transform="translate(-256 -394)"><g><path d="M258 444 517.843 444" stroke="#7030A0" stroke-width="10.3125" stroke-linecap="butt" stroke-linejoin="miter" stroke-miterlimit="8" stroke-opacity="1" fill="none" fill-rule="evenodd"/><path d="M515 444 644.921 573.921" stroke="#7030A0" stroke-width="10.3125" stroke-linecap="butt" stroke-linejoin="miter" stroke-miterlimit="8" stroke-opacity="1" fill="none" fill-rule="evenodd"/><path d="M642 574 901.843 574" stroke="#7030A0" stroke-width="10.3125" stroke-linecap="butt" stroke-linejoin="miter" stroke-miterlimit="8" stroke-opacity="1" fill="none" fill-rule="evenodd"/><path d="M0 0 259.843 0.000360892" stroke="#7030A0" stroke-width="10.3125" stroke-linecap="butt" stroke-linejoin="miter" stroke-miterlimit="8" stroke-opacity="1" fill="none" fill-rule="evenodd" transform="matrix(1 0 0 -1 258 574)"/><path d="M0 0 129.921 129.921" stroke="#7030A0" stroke-width="10.3125" stroke-linecap="butt" stroke-linejoin="miter" stroke-miterlimit="8" stroke-opacity="1" fill="none" fill-rule="evenodd" transform="matrix(1 0 0 -1 515 573.921)"/><path d="M0 0 259.843 0.000360892" stroke="#7030A0" stroke-width="10.3125" stroke-linecap="butt" stroke-linejoin="miter" stroke-miterlimit="8" stroke-opacity="1" fill="none" fill-rule="evenodd" transform="matrix(1 0 0 -1 642 444)"/><path d="M273.5 444.5 273.5 574.421" stroke="#7030A0" stroke-width="6.875" stroke-linecap="butt" stroke-linejoin="miter" stroke-miterlimit="8" stroke-opacity="0.498039" fill="none" fill-rule="evenodd"/><path d="M311.5 444.5 311.5 574.421" stroke="#7030A0" stroke-width="6.875" stroke-linecap="butt" stroke-linejoin="miter" stroke-miterlimit="8" stroke-opacity="0.498039" fill="none" fill-rule="evenodd"/><path d="M350.5 444.5 350.5 574.421" stroke="#7030A0" stroke-width="6.875" stroke-linecap="butt" stroke-linejoin="miter" stroke-miterlimit="8" stroke-opacity="0.498039" fill="none" fill-rule="evenodd"/><path d="M389.5 444.5 389.5 574.421" stroke="#7030A0" stroke-width="6.875" stroke-linecap="butt" stroke-linejoin="miter" stroke-miterlimit="8" stroke-opacity="0.498039" fill="none" fill-rule="evenodd"/><path d="M428.5 444.5 428.501 574.421" stroke="#7030A0" stroke-width="6.875" stroke-linecap="butt" stroke-linejoin="miter" stroke-miterlimit="8" stroke-opacity="0.498039" fill="none" fill-rule="evenodd"/><path d="M467.5 444.5 467.5 574.421" stroke="#7030A0" stroke-width="6.875" stroke-linecap="butt" stroke-linejoin="miter" stroke-miterlimit="8" stroke-opacity="0.498039" fill="none" fill-rule="evenodd"/><path d="M506.5 444.5 506.5 574.421" stroke="#7030A0" stroke-width="6.875" stroke-linecap="butt" stroke-linejoin="miter" stroke-miterlimit="8" stroke-opacity="0.498039" fill="none" fill-rule="evenodd"/><path d="M654.5 444.5 654.5 574.421" stroke="#7030A0" stroke-width="6.875" stroke-linecap="butt" stroke-linejoin="miter" stroke-miterlimit="8" stroke-opacity="0.498039" fill="none" fill-rule="evenodd"/><path d="M693.5 444.5 693.5 574.421" stroke="#7030A0" stroke-width="6.875" stroke-linecap="butt" stroke-linejoin="miter" stroke-miterlimit="8" stroke-opacity="0.498039" fill="none" fill-rule="evenodd"/><path d="M732.5 444.5 732.5 574.421" stroke="#7030A0" stroke-width="6.875" stroke-linecap="butt" stroke-linejoin="miter" stroke-miterlimit="8" stroke-opacity="0.498039" fill="none" fill-rule="evenodd"/><path d="M771.5 444.5 771.5 574.421" stroke="#7030A0" stroke-width="6.875" stroke-linecap="butt" stroke-linejoin="miter" stroke-miterlimit="8" stroke-opacity="0.498039" fill="none" fill-rule="evenodd"/><path d="M810.5 444.5 810.5 574.421" stroke="#7030A0" stroke-width="6.875" stroke-linecap="butt" stroke-linejoin="miter" stroke-miterlimit="8" stroke-opacity="0.498039" fill="none" fill-rule="evenodd"/><path d="M849.5 444.5 849.5 574.421" stroke="#7030A0" stroke-width="6.875" stroke-linecap="butt" stroke-linejoin="miter" stroke-miterlimit="8" stroke-opacity="0.498039" fill="none" fill-rule="evenodd"/><path d="M888.5 444.5 888.5 574.421" stroke="#7030A0" stroke-width="6.875" stroke-linecap="butt" stroke-linejoin="miter" stroke-miterlimit="8" stroke-opacity="0.498039" fill="none" fill-rule="evenodd"/><path d="M261 711 520.842 711" stroke="#0070C0" stroke-width="10.3125" stroke-linecap="butt" stroke-linejoin="miter" stroke-miterlimit="8" stroke-opacity="1" fill="none" fill-rule="evenodd"/><path d="M518 711 647.921 840.921" stroke="#0070C0" stroke-width="10.3125" stroke-linecap="butt" stroke-linejoin="miter" stroke-miterlimit="8" stroke-opacity="1" fill="none" fill-rule="evenodd"/><path d="M645 841 904.842 841.001" stroke="#0070C0" stroke-width="10.3125" stroke-linecap="butt" stroke-linejoin="miter" stroke-miterlimit="8" stroke-opacity="1" fill="none" fill-rule="evenodd"/><path d="M0 0 259.843 0.000360892" stroke="#0070C0" stroke-width="10.3125" stroke-linecap="butt" stroke-linejoin="miter" stroke-miterlimit="8" stroke-opacity="1" fill="none" fill-rule="evenodd" transform="matrix(1 0 0 -1 261 841)"/><path d="M0 0 129.921 129.921" stroke="#0070C0" stroke-width="10.3125" stroke-linecap="butt" stroke-linejoin="miter" stroke-miterlimit="8" stroke-opacity="1" fill="none" fill-rule="evenodd" transform="matrix(1 0 0 -1 518 840.921)"/><path d="M0 0 259.843 0.000360892" stroke="#0070C0" stroke-width="10.3125" stroke-linecap="butt" stroke-linejoin="miter" stroke-miterlimit="8" stroke-opacity="1" fill="none" fill-rule="evenodd" transform="matrix(1 0 0 -1 645 711)"/><path d="M276.5 711.5 276.5 841.421" stroke="#0070C0" stroke-width="6.875" stroke-linecap="butt" stroke-linejoin="miter" stroke-miterlimit="8" stroke-opacity="0.501961" fill="none" fill-rule="evenodd"/><path d="M315.5 711.5 315.5 841.421" stroke="#0070C0" stroke-width="6.875" stroke-linecap="butt" stroke-linejoin="miter" stroke-miterlimit="8" stroke-opacity="0.501961" fill="none" fill-rule="evenodd"/><path d="M354.5 711.5 354.5 841.421" stroke="#0070C0" stroke-width="6.875" stroke-linecap="butt" stroke-linejoin="miter" stroke-miterlimit="8" stroke-opacity="0.501961" fill="none" fill-rule="evenodd"/><path d="M392.5 711.5 392.5 841.421" stroke="#0070C0" stroke-width="6.875" stroke-linecap="butt" stroke-linejoin="miter" stroke-miterlimit="8" stroke-opacity="0.501961" fill="none" fill-rule="evenodd"/><path d="M431.5 711.5 431.5 841.421" stroke="#0070C0" stroke-width="6.875" stroke-linecap="butt" stroke-linejoin="miter" stroke-miterlimit="8" stroke-opacity="0.501961" fill="none" fill-rule="evenodd"/><path d="M470.5 711.5 470.5 841.421" stroke="#0070C0" stroke-width="6.875" stroke-linecap="butt" stroke-linejoin="miter" stroke-miterlimit="8" stroke-opacity="0.501961" fill="none" fill-rule="evenodd"/><path d="M509.5 711.5 509.5 841.421" stroke="#0070C0" stroke-width="6.875" stroke-linecap="butt" stroke-linejoin="miter" stroke-miterlimit="8" stroke-opacity="0.501961" fill="none" fill-rule="evenodd"/><path d="M658.5 711.5 658.5 841.421" stroke="#0070C0" stroke-width="6.875" stroke-linecap="butt" stroke-linejoin="miter" stroke-miterlimit="8" stroke-opacity="0.501961" fill="none" fill-rule="evenodd"/><path d="M696.5 711.5 696.5 841.421" stroke="#0070C0" stroke-width="6.875" stroke-linecap="butt" stroke-linejoin="miter" stroke-miterlimit="8" stroke-opacity="0.501961" fill="none" fill-rule="evenodd"/><path d="M735.5 711.5 735.5 841.421" stroke="#0070C0" stroke-width="6.875" stroke-linecap="butt" stroke-linejoin="miter" stroke-miterlimit="8" stroke-opacity="0.501961" fill="none" fill-rule="evenodd"/><path d="M774.5 711.5 774.5 841.421" stroke="#0070C0" stroke-width="6.875" stroke-linecap="butt" stroke-linejoin="miter" stroke-miterlimit="8" stroke-opacity="0.501961" fill="none" fill-rule="evenodd"/><path d="M813.5 711.5 813.501 841.421" stroke="#0070C0" stroke-width="6.875" stroke-linecap="butt" stroke-linejoin="miter" stroke-miterlimit="8" stroke-opacity="0.501961" fill="none" fill-rule="evenodd"/><path d="M852.5 711.5 852.5 841.421" stroke="#0070C0" stroke-width="6.875" stroke-linecap="butt" stroke-linejoin="miter" stroke-miterlimit="8" stroke-opacity="0.501961" fill="none" fill-rule="evenodd"/><path d="M891.5 711.5 891.5 841.421" stroke="#0070C0" stroke-width="6.875" stroke-linecap="butt" stroke-linejoin="miter" stroke-miterlimit="8" stroke-opacity="0.501961" fill="none" fill-rule="evenodd"/><path d="M264 986 523.843 986" stroke="#FFC000" stroke-width="10.3125" stroke-linecap="butt" stroke-linejoin="miter" stroke-miterlimit="8" stroke-opacity="1" fill="none" fill-rule="evenodd"/><path d="M521 986 650.921 1115.92" stroke="#FFC000" stroke-width="10.3125" stroke-linecap="butt" stroke-linejoin="miter" stroke-miterlimit="8" stroke-opacity="1" fill="none" fill-rule="evenodd"/><path d="M648 1116 907.842 1116" stroke="#FFC000" stroke-width="10.3125" stroke-linecap="butt" stroke-linejoin="miter" stroke-miterlimit="8" stroke-opacity="1" fill="none" fill-rule="evenodd"/><path d="M0 0 259.843 0.000360892" stroke="#FFC000" stroke-width="10.3125" stroke-linecap="butt" stroke-linejoin="miter" stroke-miterlimit="8" stroke-opacity="1" fill="none" fill-rule="evenodd" transform="matrix(1 0 0 -1 264 1116)"/><path d="M0 0 129.921 129.921" stroke="#FFC000" stroke-width="10.3125" stroke-linecap="butt" stroke-linejoin="miter" stroke-miterlimit="8" stroke-opacity="1" fill="none" fill-rule="evenodd" transform="matrix(1 0 0 -1 521 1115.92)"/><path d="M0 0 259.843 0.000360892" stroke="#FFC000" stroke-width="10.3125" stroke-linecap="butt" stroke-linejoin="miter" stroke-miterlimit="8" stroke-opacity="1" fill="none" fill-rule="evenodd" transform="matrix(1 0 0 -1 648 986)"/><path d="M279.5 986.5 279.5 1116.42" stroke="#FFC000" stroke-width="6.875" stroke-linecap="butt" stroke-linejoin="miter" stroke-miterlimit="8" stroke-opacity="0.498039" fill="none" fill-rule="evenodd"/><path d="M318.5 986.5 318.501 1116.42" stroke="#FFC000" stroke-width="6.875" stroke-linecap="butt" stroke-linejoin="miter" stroke-miterlimit="8" stroke-opacity="0.498039" fill="none" fill-rule="evenodd"/><path d="M357.5 986.5 357.5 1116.42" stroke="#FFC000" stroke-width="6.875" stroke-linecap="butt" stroke-linejoin="miter" stroke-miterlimit="8" stroke-opacity="0.498039" fill="none" fill-rule="evenodd"/><path d="M395.5 986.5 395.501 1116.42" stroke="#FFC000" stroke-width="6.875" stroke-linecap="butt" stroke-linejoin="miter" stroke-miterlimit="8" stroke-opacity="0.498039" fill="none" fill-rule="evenodd"/><path d="M434.5 986.5 434.5 1116.42" stroke="#FFC000" stroke-width="6.875" stroke-linecap="butt" stroke-linejoin="miter" stroke-miterlimit="8" stroke-opacity="0.498039" fill="none" fill-rule="evenodd"/><path d="M474.5 986.5 474.5 1116.42" stroke="#FFC000" stroke-width="6.875" stroke-linecap="butt" stroke-linejoin="miter" stroke-miterlimit="8" stroke-opacity="0.498039" fill="none" fill-rule="evenodd"/><path d="M513.5 986.5 513.5 1116.42" stroke="#FFC000" stroke-width="6.875" stroke-linecap="butt" stroke-linejoin="miter" stroke-miterlimit="8" stroke-opacity="0.498039" fill="none" fill-rule="evenodd"/><path d="M661.5 986.5 661.5 1116.42" stroke="#FFC000" stroke-width="6.875" stroke-linecap="butt" stroke-linejoin="miter" stroke-miterlimit="8" stroke-opacity="0.498039" fill="none" fill-rule="evenodd"/><path d="M699.5 986.5 699.5 1116.42" stroke="#FFC000" stroke-width="6.875" stroke-linecap="butt" stroke-linejoin="miter" stroke-miterlimit="8" stroke-opacity="0.498039" fill="none" fill-rule="evenodd"/><path d="M738.5 986.5 738.5 1116.42" stroke="#FFC000" stroke-width="6.875" stroke-linecap="butt" stroke-linejoin="miter" stroke-miterlimit="8" stroke-opacity="0.498039" fill="none" fill-rule="evenodd"/><path d="M777.5 986.5 777.5 1116.42" stroke="#FFC000" stroke-width="6.875" stroke-linecap="butt" stroke-linejoin="miter" stroke-miterlimit="8" stroke-opacity="0.498039" fill="none" fill-rule="evenodd"/><path d="M816.5 986.5 816.5 1116.42" stroke="#FFC000" stroke-width="6.875" stroke-linecap="butt" stroke-linejoin="miter" stroke-miterlimit="8" stroke-opacity="0.498039" fill="none" fill-rule="evenodd"/><path d="M855.5 986.5 855.5 1116.42" stroke="#FFC000" stroke-width="6.875" stroke-linecap="butt" stroke-linejoin="miter" stroke-miterlimit="8" stroke-opacity="0.498039" fill="none" fill-rule="evenodd"/><path d="M894.5 986.5 894.5 1116.42" stroke="#FFC000" stroke-width="6.875" stroke-linecap="butt" stroke-linejoin="miter" stroke-miterlimit="8" stroke-opacity="0.498039" fill="none" fill-rule="evenodd"/><path d="M1252 921 1467.98 921" stroke="#000000" stroke-width="10.3125" stroke-linecap="butt" stroke-linejoin="miter" stroke-miterlimit="8" stroke-opacity="1" fill="none" fill-rule="evenodd"/><path d="M0 0 171.119 182.581" stroke="#0070C0" stroke-width="10.3125" stroke-linecap="butt" stroke-linejoin="miter" stroke-miterlimit="8" stroke-dasharray="41.25 30.9375" stroke-opacity="1" fill="none" fill-rule="evenodd" transform="matrix(1 0 0 -1 1545 889.581)"/><path d="M1559 921 1923.81 1116.24" stroke="#FFC000" stroke-width="10.3125" stroke-linecap="butt" stroke-linejoin="miter" stroke-miterlimit="8" stroke-dasharray="41.25 30.9375" stroke-opacity="1" fill="none" fill-rule="evenodd"/><path d="M0 0 150.78 163.5" stroke="#7030A0" stroke-width="10.3125" stroke-linecap="butt" stroke-linejoin="miter" stroke-miterlimit="8" stroke-dasharray="41.25 30.9375" stroke-opacity="1" fill="none" fill-rule="evenodd" transform="matrix(1 0 0 -1 1781 642.5)"/><path d="M2138.25 642.5 1996 479" stroke="#7030A0" stroke-width="10.3125" stroke-linecap="butt" stroke-linejoin="miter" stroke-miterlimit="8" stroke-dasharray="41.25 30.9375" stroke-opacity="1" fill="none" fill-rule="evenodd"/><path d="M2202 707 2367.81 889.896" stroke="#0070C0" stroke-width="10.3125" stroke-linecap="butt" stroke-linejoin="miter" stroke-miterlimit="8" stroke-dasharray="41.25 30.9375" stroke-opacity="1" fill="none" fill-rule="evenodd"/><path d="M2209.23 1192.15 2001 1149" stroke="#FF0000" stroke-width="10.3125" stroke-linecap="butt" stroke-linejoin="miter" stroke-miterlimit="8" stroke-dasharray="41.25 30.9375" stroke-opacity="1" fill="none" fill-rule="evenodd"/><path d="M0 0 367.134 194.929" stroke="#FFC000" stroke-width="10.3125" stroke-linecap="butt" stroke-linejoin="miter" stroke-miterlimit="8" stroke-dasharray="41.25 30.9375" stroke-opacity="1" fill="none" fill-rule="evenodd" transform="matrix(-1 0 0 1 2355.13 922)"/><path d="M0 0 81.273 205.924" stroke="#FF0000" stroke-width="10.3125" stroke-linecap="butt" stroke-linejoin="miter" stroke-miterlimit="8" stroke-dasharray="41.25 30.9375" stroke-opacity="1" fill="none" fill-rule="evenodd" transform="matrix(1 0 0 -1 2287 1159.92)"/><path d="M1794 675 2124.7 675" stroke="#0070C0" stroke-width="10.3125" stroke-linecap="butt" stroke-linejoin="miter" stroke-miterlimit="8" stroke-dasharray="41.25 30.9375" stroke-opacity="1" fill="none" fill-rule="evenodd"/><path d="M2355 921.5C2355 896.371 2375.37 876 2400.5 876 2425.63 876 2446 896.371 2446 921.5 2446 946.629 2425.63 967 2400.5 967 2375.37 967 2355 946.629 2355 921.5Z" stroke="#000000" stroke-width="10.3125" stroke-linecap="butt" stroke-linejoin="miter" stroke-miterlimit="8" stroke-opacity="1" fill="none" fill-rule="evenodd"/><path d="M1703 674.5C1703 649.371 1723.37 629 1748.5 629 1773.63 629 1794 649.371 1794 674.5 1794 699.629 1773.63 720 1748.5 720 1723.37 720 1703 699.629 1703 674.5Z" stroke="#0070C0" stroke-width="10.3125" stroke-linecap="butt" stroke-linejoin="miter" stroke-miterlimit="8" stroke-opacity="1" fill="none" fill-rule="evenodd"/><path d="M2125 674.5C2125 649.371 2145.37 629 2170.5 629 2195.63 629 2216 649.371 2216 674.5 2216 699.629 2195.63 720 2170.5 720 2145.37 720 2125 699.629 2125 674.5Z" stroke="#0070C0" stroke-width="10.3125" stroke-linecap="butt" stroke-linejoin="miter" stroke-miterlimit="8" stroke-opacity="1" fill="none" fill-rule="evenodd"/><path d="M1910 1148.5C1910 1123.37 1930.37 1103 1955.5 1103 1980.63 1103 2001 1123.37 2001 1148.5 2001 1173.63 1980.63 1194 1955.5 1194 1930.37 1194 1910 1173.63 1910 1148.5Z" stroke="#FFC000" stroke-width="10.3125" stroke-linecap="butt" stroke-linejoin="miter" stroke-miterlimit="8" stroke-opacity="1" fill="none" fill-rule="evenodd"/><path d="M1918 446.5C1918 421.371 1938.37 401 1963.5 401 1988.63 401 2009 421.371 2009 446.5 2009 471.629 1988.63 492 1963.5 492 1938.37 492 1918 471.629 1918 446.5Z" stroke="#7030A0" stroke-width="10.3125" stroke-linecap="butt" stroke-linejoin="miter" stroke-miterlimit="8" stroke-opacity="1" fill="none" fill-rule="evenodd"/><path d="M2209 1192.5C2209 1167.37 2229.37 1147 2254.5 1147 2279.63 1147 2300 1167.37 2300 1192.5 2300 1217.63 2279.63 1238 2254.5 1238 2229.37 1238 2209 1217.63 2209 1192.5Z" stroke="#FF0000" stroke-width="10.3125" stroke-linecap="butt" stroke-linejoin="miter" stroke-miterlimit="8" stroke-opacity="1" fill="none" fill-rule="evenodd"/><path d="M1559 921 1906.07 921" stroke="#000000" stroke-width="10.3125" stroke-linecap="butt" stroke-linejoin="miter" stroke-miterlimit="8" stroke-opacity="1" fill="none" fill-rule="evenodd"/><path d="M1621.32 1160.24 1545 954" stroke="#FF0000" stroke-width="10.3125" stroke-linecap="butt" stroke-linejoin="miter" stroke-miterlimit="8" stroke-dasharray="41.25 30.9375" stroke-opacity="1" fill="none" fill-rule="evenodd"/><path d="M0 0 210.86 43.1487" stroke="#FF0000" stroke-width="10.3125" stroke-linecap="butt" stroke-linejoin="miter" stroke-miterlimit="8" stroke-dasharray="41.25 30.9375" stroke-opacity="1" fill="none" fill-rule="evenodd" transform="matrix(1 0 0 -1 1699 1192.15)"/><path d="M1608 1192.5C1608 1167.37 1628.37 1147 1653.5 1147 1678.63 1147 1699 1167.37 1699 1192.5 1699 1217.63 1678.63 1238 1653.5 1238 1628.37 1238 1608 1217.63 1608 1192.5Z" stroke="#FF0000" stroke-width="10.3125" stroke-linecap="butt" stroke-linejoin="miter" stroke-miterlimit="8" stroke-opacity="1" fill="none" fill-rule="evenodd"/><path d="M1468 921.5C1468 896.371 1488.37 876 1513.5 876 1538.63 876 1559 896.371 1559 921.5 1559 946.629 1538.63 967 1513.5 967 1488.37 967 1468 946.629 1468 921.5Z" stroke="#000000" stroke-width="10.3125" stroke-linecap="butt" stroke-linejoin="miter" stroke-miterlimit="8" stroke-opacity="1" fill="none" fill-rule="evenodd"/><path d="M0 0 214.447 0.000360892" stroke="#000000" stroke-width="10.3125" stroke-linecap="butt" stroke-linejoin="miter" stroke-miterlimit="8" stroke-opacity="1" fill="none" fill-rule="evenodd" transform="matrix(-1 0 0 1 2660.45 922)"/><path d="M2660 921.5C2660 896.371 2680.37 876 2705.5 876 2730.63 876 2751 896.371 2751 921.5 2751 946.629 2730.63 967 2705.5 967 2680.37 967 2660 946.629 2660 921.5Z" stroke="#000000" stroke-width="10.3125" stroke-linecap="butt" stroke-linejoin="miter" stroke-miterlimit="8" stroke-opacity="1" fill="none" fill-rule="evenodd"/><path d="M899 509.038C922.185 508.139 945.37 507.24 961.545 509.038 977.72 510.837 983.112 509.398 996.052 519.831 1008.99 530.264 1022.65 545.375 1039.19 571.638 1055.72 597.901 1070.46 626.682 1095.26 677.409 1120.06 728.136 1154.03 802.068 1188 876" stroke="#7030A0" stroke-width="10.3125" stroke-linecap="butt" stroke-linejoin="miter" stroke-miterlimit="8" stroke-dasharray="10.3125 10.3125" stroke-opacity="1" fill="none" fill-rule="evenodd"/><path d="M0 1.0384C23.1847 0.139055 46.3697-0.76029 62.5449 1.0384 78.7205 2.83709 84.1118 1.39814 97.0522 11.8313 109.993 22.2644 123.652 37.3748 140.187 63.6379 156.722 89.9009 171.459 118.682 196.261 169.409 221.063 220.136 255.032 294.068 289 368" stroke="#FF0000" stroke-width="10.3125" stroke-linecap="butt" stroke-linejoin="miter" stroke-miterlimit="8" stroke-dasharray="10.3125 10.3125" stroke-opacity="1" fill="none" fill-rule="evenodd" transform="matrix(1 0 0 -1 903 1331)"/><path d="M264 1260 523.843 1260" stroke="#FF0000" stroke-width="10.3125" stroke-linecap="butt" stroke-linejoin="miter" stroke-miterlimit="8" stroke-opacity="1" fill="none" fill-rule="evenodd"/><path d="M521 1260 650.921 1389.92" stroke="#FF0000" stroke-width="10.3125" stroke-linecap="butt" stroke-linejoin="miter" stroke-miterlimit="8" stroke-opacity="1" fill="none" fill-rule="evenodd"/><path d="M648 1390 907.842 1390" stroke="#FF0000" stroke-width="10.3125" stroke-linecap="butt" stroke-linejoin="miter" stroke-miterlimit="8" stroke-opacity="1" fill="none" fill-rule="evenodd"/><path d="M0 0 259.843 0.000360892" stroke="#FF0000" stroke-width="10.3125" stroke-linecap="butt" stroke-linejoin="miter" stroke-miterlimit="8" stroke-opacity="1" fill="none" fill-rule="evenodd" transform="matrix(1 0 0 -1 264 1390)"/><path d="M0 0 129.921 129.921" stroke="#FF0000" stroke-width="10.3125" stroke-linecap="butt" stroke-linejoin="miter" stroke-miterlimit="8" stroke-opacity="1" fill="none" fill-rule="evenodd" transform="matrix(1 0 0 -1 521 1389.92)"/><path d="M0 0 259.843 0.000360892" stroke="#FF0000" stroke-width="10.3125" stroke-linecap="butt" stroke-linejoin="miter" stroke-miterlimit="8" stroke-opacity="1" fill="none" fill-rule="evenodd" transform="matrix(1 0 0 -1 648 1260)"/><path d="M279.5 1260.5 279.5 1390.42" stroke="#FF0000" stroke-width="6.875" stroke-linecap="butt" stroke-linejoin="miter" stroke-miterlimit="8" stroke-opacity="0.498039" fill="none" fill-rule="evenodd"/><path d="M318.5 1260.5 318.501 1390.42" stroke="#FF0000" stroke-width="6.875" stroke-linecap="butt" stroke-linejoin="miter" stroke-miterlimit="8" stroke-opacity="0.498039" fill="none" fill-rule="evenodd"/><path d="M357.5 1260.5 357.5 1390.42" stroke="#FF0000" stroke-width="6.875" stroke-linecap="butt" stroke-linejoin="miter" stroke-miterlimit="8" stroke-opacity="0.498039" fill="none" fill-rule="evenodd"/><path d="M395.5 1260.5 395.501 1390.42" stroke="#FF0000" stroke-width="6.875" stroke-linecap="butt" stroke-linejoin="miter" stroke-miterlimit="8" stroke-opacity="0.498039" fill="none" fill-rule="evenodd"/><path d="M434.5 1260.5 434.5 1390.42" stroke="#FF0000" stroke-width="6.875" stroke-linecap="butt" stroke-linejoin="miter" stroke-miterlimit="8" stroke-opacity="0.498039" fill="none" fill-rule="evenodd"/><path d="M474.5 1260.5 474.5 1390.42" stroke="#FF0000" stroke-width="6.875" stroke-linecap="butt" stroke-linejoin="miter" stroke-miterlimit="8" stroke-opacity="0.498039" fill="none" fill-rule="evenodd"/><path d="M513.5 1260.5 513.5 1390.42" stroke="#FF0000" stroke-width="6.875" stroke-linecap="butt" stroke-linejoin="miter" stroke-miterlimit="8" stroke-opacity="0.498039" fill="none" fill-rule="evenodd"/><path d="M661.5 1260.5 661.5 1390.42" stroke="#FF0000" stroke-width="6.875" stroke-linecap="butt" stroke-linejoin="miter" stroke-miterlimit="8" stroke-opacity="0.498039" fill="none" fill-rule="evenodd"/><path d="M699.5 1260.5 699.5 1390.42" stroke="#FF0000" stroke-width="6.875" stroke-linecap="butt" stroke-linejoin="miter" stroke-miterlimit="8" stroke-opacity="0.498039" fill="none" fill-rule="evenodd"/><path d="M738.5 1260.5 738.5 1390.42" stroke="#FF0000" stroke-width="6.875" stroke-linecap="butt" stroke-linejoin="miter" stroke-miterlimit="8" stroke-opacity="0.498039" fill="none" fill-rule="evenodd"/><path d="M777.5 1260.5 777.5 1390.42" stroke="#FF0000" stroke-width="6.875" stroke-linecap="butt" stroke-linejoin="miter" stroke-miterlimit="8" stroke-opacity="0.498039" fill="none" fill-rule="evenodd"/><path d="M816.5 1260.5 816.5 1390.42" stroke="#FF0000" stroke-width="6.875" stroke-linecap="butt" stroke-linejoin="miter" stroke-miterlimit="8" stroke-opacity="0.498039" fill="none" fill-rule="evenodd"/><path d="M855.5 1260.5 855.5 1390.42" stroke="#FF0000" stroke-width="6.875" stroke-linecap="butt" stroke-linejoin="miter" stroke-miterlimit="8" stroke-opacity="0.498039" fill="none" fill-rule="evenodd"/><path d="M894.5 1260.5 894.5 1390.42" stroke="#FF0000" stroke-width="6.875" stroke-linecap="butt" stroke-linejoin="miter" stroke-miterlimit="8" stroke-opacity="0.498039" fill="none" fill-rule="evenodd"/><path d="M0 0.660875C22.4359 0.0884998 44.8719-0.483876 60.3076 0.660875 75.7434 1.80563 80.41 2.0921 92.6153 7.52996 104.821 12.9678 106.974 15.5438 133.538 33.2889 160.103 51.0339 206.051 82.5169 252 114" stroke="#FFC000" stroke-width="10.3125" stroke-linecap="butt" stroke-linejoin="miter" stroke-miterlimit="8" stroke-dasharray="10.3125 10.3125" stroke-opacity="1" fill="none" fill-rule="evenodd" transform="matrix(1 0 0 -1 910 1059)"/><path d="M909 782.649C931.436 782.087 953.872 781.525 969.307 782.649 984.743 783.774 989.41 784.055 1001.62 789.398 1013.82 794.74 1015.97 797.271 1042.54 814.705 1069.1 832.139 1115.05 863.069 1161 894" stroke="#0070C0" stroke-width="10.3125" stroke-linecap="butt" stroke-linejoin="miter" stroke-miterlimit="8" stroke-dasharray="10.3125 10.3125" stroke-opacity="1" fill="none" fill-rule="evenodd"/><path d="M1906 921.5C1906 896.371 1926.37 876 1951.5 876 1976.63 876 1997 896.371 1997 921.5 1997 946.629 1976.63 967 1951.5 967 1926.37 967 1906 946.629 1906 921.5Z" stroke="#000000" stroke-width="10.3125" stroke-linecap="butt" stroke-linejoin="miter" stroke-miterlimit="8" stroke-opacity="1" fill="none" fill-rule="evenodd"/><path d="M2355.23 921.315 1997 921" stroke="#000000" stroke-width="10.3125" stroke-linecap="butt" stroke-linejoin="miter" stroke-miterlimit="8" stroke-opacity="1" fill="none" fill-rule="evenodd"/><path d="M1161 921.5C1161 896.371 1181.37 876 1206.5 876 1231.63 876 1252 896.371 1252 921.5 1252 946.629 1231.63 967 1206.5 967 1181.37 967 1161 946.629 1161 921.5Z" stroke="#000000" stroke-width="10.3125" stroke-linecap="butt" stroke-linejoin="miter" stroke-miterlimit="8" stroke-opacity="1" fill="none" fill-rule="evenodd"/></g></g></svg>